<svg width="14" height="15" viewBox="0 0 14 15" fill="none" xmlns="http://www.w3.org/2000/svg">
<path fill-rule="evenodd" clip-rule="evenodd" d="M2.09961 3.00859C2.09961 2.62199 2.41301 2.30859 2.79961 2.30859L11.1996 2.30859C11.5862 2.30859 11.8996 2.62199 11.8996 3.00859C11.8996 3.39519 11.5862 3.70859 11.1996 3.70859L2.79961 3.70859C2.41301 3.70859 2.09961 3.39519 2.09961 3.00859ZM2.09961 5.80859C2.09961 5.42199 2.41301 5.10859 2.79961 5.10859L11.1996 5.10859C11.5862 5.10859 11.8996 5.42199 11.8996 5.80859C11.8996 6.19519 11.5862 6.50859 11.1996 6.50859L2.79961 6.50859C2.41301 6.50859 2.09961 6.19519 2.09961 5.80859ZM2.09961 8.60859C2.09961 8.22199 2.41301 7.90859 2.79961 7.90859L11.1996 7.90859C11.5862 7.90859 11.8996 8.22199 11.8996 8.60859C11.8996 8.99519 11.5862 9.30859 11.1996 9.30859L2.79961 9.30859C2.41301 9.30859 2.09961 8.99519 2.09961 8.60859ZM2.09961 11.4086C2.09961 11.022 2.41301 10.7086 2.79961 10.7086L11.1996 10.7086C11.5862 10.7086 11.8996 11.022 11.8996 11.4086C11.8996 11.7952 11.5862 12.1086 11.1996 12.1086L2.79961 12.1086C2.41301 12.1086 2.09961 11.7952 2.09961 11.4086Z" fill="#111827"/>
</svg>
