<svg width="48" height="42" viewBox="0 0 48 42" fill="none" xmlns="http://www.w3.org/2000/svg">
<path d="M8.28746 5.14391C20.6348 -2.57638 37.6348 -1.06414 47.7882 6.07758C42.6861 4.18312 39.4618 6.34077 38.4874 7.6564C39.8161 7.83179 43.9487 8.95989 46.2871 10.6436C43.2871 11.1436 40.879 12.3919 39.8161 13.4443C43.2707 18.4429 43.0049 31.8602 34.767 37.385C21.2871 45.6438 8.72477 39.4897 3.14427 32.3864C-2.43622 25.2831 -0.508493 10.6436 8.28746 5.14391Z" fill="#CD0052"/>
<path d="M20.0353 23.5895V23.4233C20.0396 22.652 20.112 22.0384 20.2527 21.5824C20.3975 21.1264 20.6021 20.7599 20.8663 20.483C21.1305 20.2017 21.4522 19.9439 21.8315 19.7095C22.0914 19.5476 22.3237 19.3707 22.5282 19.179C22.737 18.983 22.9011 18.7656 23.0204 18.527C23.1397 18.2841 23.1994 18.0135 23.1994 17.7152C23.1994 17.3786 23.1206 17.0866 22.9629 16.8395C22.8052 16.5923 22.5922 16.4006 22.3237 16.2642C22.0595 16.1278 21.7633 16.0597 21.4352 16.0597C21.1326 16.0597 20.845 16.1257 20.5723 16.2578C20.3038 16.3857 20.0801 16.5817 19.9011 16.8459C19.7264 17.1058 19.6284 17.4361 19.6071 17.8366H17.3315C17.3528 17.027 17.5488 16.3494 17.9196 15.804C18.2946 15.2585 18.7889 14.8494 19.4025 14.5767C20.0204 14.304 20.7022 14.1676 21.448 14.1676C22.2619 14.1676 22.9778 14.3104 23.5957 14.5959C24.2179 14.8814 24.7015 15.2884 25.0467 15.8168C25.3961 16.3409 25.5708 16.9631 25.5708 17.6832C25.5708 18.169 25.492 18.6037 25.3343 18.9872C25.1809 19.3707 24.9615 19.7116 24.676 20.0099C24.3904 20.3082 24.0517 20.5746 23.6596 20.8089C23.3145 21.022 23.0311 21.2436 22.8095 21.4737C22.5922 21.7038 22.4302 21.9744 22.3237 22.2855C22.2214 22.5923 22.1681 22.9716 22.1639 23.4233V23.5895H20.0353ZM21.1476 27.5781C20.764 27.5781 20.4338 27.4418 20.1568 27.169C19.8798 26.8963 19.7413 26.5639 19.7413 26.1719C19.7413 25.7884 19.8798 25.4602 20.1568 25.1875C20.4338 24.9148 20.764 24.7784 21.1476 24.7784C21.5268 24.7784 21.8549 24.9148 22.1319 25.1875C22.4132 25.4602 22.5538 25.7884 22.5538 26.1719C22.5538 26.4318 22.4877 26.6683 22.3556 26.8814C22.2278 27.0945 22.0574 27.2649 21.8443 27.3928C21.6355 27.5163 21.4032 27.5781 21.1476 27.5781Z" fill="white"/>
</svg>
