<?xml version="1.0" encoding="UTF-8"?>
<svg id="Capa_1" xmlns="http://www.w3.org/2000/svg" viewBox="0 0 625 400">
  <defs>
    <style>
      .cls-1 {
        fill: #ffb30b;
      }

      .cls-2 {
        fill: #eb3883;
      }
    </style>
  </defs>
  <g>
    <path class="cls-1" d="M297.54,245.15c47.81,0,69.84,13.08,69.84,42.05s-22.02,40.1-69.84,40.1-70.25-11.29-70.25-40.1,22.02-42.05,70.25-42.05ZM297.54,303.37c6.89,0,11.21-6.18,11.21-16.17s-4.32-16.17-11.21-16.17-11.21,6.32-11.21,16.17,4.19,16.17,11.21,16.17Z"/>
    <path class="cls-1" d="M132.56,320.49c.15,3.24-1.47,5-4.41,4.85-6.32-.44-13.38-.59-20.29-.59s-13.97.15-20.29.59c-2.94.15-4.56-1.62-4.41-4.85,1.47-31.76,1.47-204.62,0-236.37-.15-3.23,1.47-5,4.41-4.85,1.91.15,3.82.29,5.88.29,11.91-.44,38.81-1.62,39.25-1.62h4.7c43.67,0,54.76,20.09,54.76,56.75,0,28.52-11.39,67.65-53.58,66.77l-3.38-.15c-2.35,0-3.38,1.47-3.38,4.56.3,6.17.44,108.3.74,114.62ZM137.11,176.64c9.26,0,21.46-12.28,20.47-39.72-.87-24.06-11.2-30.16-20.47-30.16-3.53,0-5.29,0-5.44,4.56-.15,6.32-.3,54.44-.3,60.76,0,3.09,1.18,4.56,3.53,4.56h2.21Z"/>
    <path class="cls-1" d="M260.88,219.94c-2.02.87-3.01,3.45-4.1,5.51-4.74,8.99-16.51,11.67-26.64,10.83-10.75-.9-21.65-4.96-28.71-13.12-7.63-8.83-9.81-21.23-9.2-32.88.55-10.55,3.26-21.23,9.47-29.77,6.41-8.82,16.18-14.8,26.56-18.12,10.38-3.32,21.4-4.17,32.29-4.2,1.95,0,4.47-.42,4.85-2.34.32-1.65-1.31-3-2.85-3.68-7.77-3.44-16.68-.39-24.9,1.77-6.66,1.75-13.49,2.9-20.36,3.41-1.17.09-2.41.15-3.47-.36-2.68-1.28-2.63-5.03-2.49-8,.35-7.18-1.17-14.44-4.36-20.87-2.1-4.23-4.91-8.07-6.88-12.36-2.55-5.58-.41-7.15,5.46-6.69,6.86.54,13.81-.07,20.46-1.81,7.31-1.91,14.19-5.14,21.36-7.52,7.17-2.37,14.9-3.88,22.26-2.19,7.73,1.77,14.39,6.98,19.01,13.43,4.62,6.45,7.36,14.06,9.19,21.78,8.9,37.67-3.09,77.35,1.9,115.73.28,2.14.32,4.87-1.62,5.82-.69.34-1.49.34-2.27.34-8.8,0-17.61,0-26.41,0-2.16,0-4.46-.04-6.28-1.21-2.1-1.35-3.08-3.99-3.09-6.48-.01-2.49.8-4.91,1.6-7.27-.29.05-.55.13-.8.24ZM255.91,147.04c-4.7,0-12.6,5.66-13.03,10.79-.73,8.69-3.29,56.44,7.45,56.47,12.7.04,8.45-55.98,7.94-63.29-.17-2.51-.59-3.97-2.35-3.97Z"/>
    <path class="cls-1" d="M313.26,83.12c0-3.23,1.33-5,3.97-4.85,5.88.29,11.61.44,17.49.44s11.61-.15,17.35-.44c2.65-.15,4.27,1.62,3.97,4.85-1.32,31.76-1.32,112.82,0,144.58.3,3.24-1.32,5-3.97,4.85-5.73-.44-11.47-.59-17.35-.59s-11.61.15-17.49.59c-2.65.15-3.97-1.62-3.97-4.85,1.33-31.76,1.33-112.82,0-144.58Z"/>
    <path class="cls-1" d="M211.42,242.72c2.94,0,5.59.44,7.65,1.32,3.82,1.76,5.44,4.85,4.71,8.67-2.06,8.97-2.94,18.38-3.53,27.35-.3,3.09-1.47,4.7-3.38,4.7-.44,0-1.03-.15-1.61-.29-3.97-1.47-7.35-2.2-10.59-2.2-10,0-15.88,7.65-16.9,21.91-.44,5.29.44,10.58.59,16.17.29,3.24-1.33,5-3.97,4.85-5.44-.44-11.17-.59-16.76-.59s-11.32.15-16.9.59c-2.65.15-3.97-1.62-3.97-4.85,1.33-25.29,1.33-72.28,0-97.57,0-3.23,1.33-5,3.97-4.85,5.59.29,11.32.59,16.9.59s11.32-.29,16.76-.59c2.65-.15,4.27,1.62,3.97,4.85-.15,5.44-.59,41.71-.59,49.2,0,.59.29,1.32.59,1.32.73.15,1.91-.15,2.05-1.62.88-12.06,6.32-28.96,21.03-28.96Z"/>
    <path class="cls-1" d="M376.82,273c-2.5,0-4.12-1.62-3.82-4.7.3-5.29.3-10.88,0-16.17-.29-3.09,1.33-4.71,3.82-4.71h7.35c1.61,0,1.45-1.2,0-2.65-15.08-15-13.39-22.01-13.39-30.39,0-13.23,8.06-28.08,25.67-22.34,24.13,7.86,54.31,14.98,78.58,3.57,16.77-7.89,37.79-26.12,45.68-40.92,5.99-11.24,17.52,7.25,19.28,14.08,2.63,10.2,2.96,23.87-2.32,33.35-10.46,18.8-44.06,34.52-70.95,34.52-13.79,0-31.14-1.05-44.92-.87-1.96.02-3.92.03-5.88.03-4.85-.01-8.53,1.03-8.53,5.44,0,3.97,2.79,6.18,6.91,6.18h33.08c2.5,0,4.12,1.62,3.82,4.71-.3,5.29-.3,10.88,0,16.17.29,3.09-1.33,4.7-3.82,4.7h-16.91c-2.64,0-3.97,1.62-3.97,4.85.3,15.29.44,31.32.88,42.05.14,3.38-1.18,5.29-3.68,5.29-6.03-.44-11.76-.59-17.64-.59s-11.47.15-17.2.59c-2.79.15-4.26-1.76-4.12-5.29.74-13.82,1.62-28.08,1.62-42.05,0-3.23-1.32-4.85-3.97-4.85h-5.59Z"/>
    <path class="cls-1" d="M491.08,292.7c1.91,3.68,5.59,5.44,10.73,5.44,10.14,0,16.47-6.76,34.41-7.35,2.2,0,3.53,1.18,3.67,3.97.3,6.91.88,18.38,1.91,25.29.29,2.65-.74,4.27-2.8,4.27h-.29c-20.73-.88-26.9,2.5-43.81,2.5-26.32,0-40.28-14.56-40.28-41.9s15.14-42.19,46.31-42.19c24.99,0,39.11,8.53,39.11,23.38,0,20.43-24.55,23.96-40.43,23.96-2.5,0-4.85,0-6.76-.29-2.06-.29-2.65,1.03-1.77,2.94ZM496.08,281.68c1.61.15,4.41.15,6.03-.15,4.12-.59,7.65-2.2,7.65-5,0-3.38-2.65-5.15-6.91-5.15-4.7,0-7.65,2.06-9.11,6.32-.44,2.2.44,3.82,2.35,3.97Z"/>
  </g>
  <g>
    <g>
      <g>
        <path d="M448.61,91.49c-10.42,1.45-18.47,11.04-21,14.4.96-3.47,2.04-7.78,3.76-11.65,3.7-8.34,9.83-14.36,9.07-16.04s-5.43-5.16-9.15-5.5c-3.25-.3-11.12,14.94-10.66,23.89.2,3.82.28,7.18.54,9.82-20.58-1.3-31.52,11.2-33.12,28.93-1.74,19.28,8.44,38.39,39.15,42.59,6.38.87,20.74-9.7,20.74-9.7,0,0,31.67,12.07,39.18-34.65,5.12-31.88-25.83-43.87-38.5-42.11Z"/>
        <path d="M414.93,97.43c1.33-.71.2-3.74-6.84-10.22-7.04-6.48-13.16-7.88-16.28-6.09-1.87,1.08-1.75,6.56,6.04,13.41,7.79,6.85,15.75,3.62,17.08,2.9Z"/>
      </g>
      <g>
        <path d="M450.06,92.08c-10.46,1.45-18.54,11.08-21.08,14.45.97-3.48,2.05-7.8,3.77-11.69,3.71-8.37,9.87-14.41,9.11-16.09s-5.45-5.18-9.18-5.52c-3.27-.3-11.16,14.99-10.7,23.98.2,3.83.28,7.2.54,9.86-20.66-1.31-31.63,11.24-33.24,29.04-1.74,19.35,8.47,38.53,39.29,42.74,6.41.88,20.81-9.73,20.81-9.73,0,0,31.79,12.11,39.32-34.77,5.14-32-25.92-44.02-38.64-42.26Z"/>
        <path d="M416.26,98.05c1.33-.72.2-3.75-6.86-10.26-7.06-6.51-13.21-7.91-16.34-6.11-1.88,1.08-1.76,6.58,6.06,13.46,7.82,6.87,15.81,3.63,17.14,2.91Z"/>
      </g>
      <g>
        <path d="M451.51,92.68c-10.49,1.46-18.6,11.12-21.16,14.51.97-3.49,2.06-7.83,3.78-11.73,3.72-8.4,9.9-14.46,9.14-16.15-.76-1.69-5.47-5.2-9.22-5.54-3.28-.3-11.2,15.05-10.74,24.06.2,3.85.28,7.23.54,9.89-20.73-1.31-31.75,11.28-33.36,29.14-1.75,19.42,8.5,38.67,39.43,42.9,6.43.88,20.89-9.77,20.89-9.77,0,0,31.9,12.16,39.46-34.9,5.16-32.11-26.02-44.18-38.78-42.41Z"/>
        <path d="M417.59,98.67c1.34-.72.2-3.77-6.89-10.29s-13.26-7.94-16.4-6.13c-1.88,1.08-1.77,6.61,6.08,13.5,7.85,6.9,15.87,3.64,17.2,2.92Z"/>
      </g>
      <g>
        <path d="M452.97,93.28c-10.53,1.46-18.67,11.16-21.23,14.56.98-3.51,2.06-7.86,3.8-11.77,3.74-8.43,9.94-14.52,9.17-16.21s-5.49-5.22-9.25-5.56c-3.29-.3-11.24,15.1-10.78,24.15.2,3.86.28,7.26.54,9.93-20.81-1.32-31.86,11.32-33.48,29.25-1.76,19.49,8.53,38.81,39.57,43.05,6.45.88,20.96-9.8,20.96-9.8,0,0,32.02,12.2,39.6-35.03,5.18-32.23-26.11-44.34-38.92-42.57Z"/>
        <path d="M418.92,99.28c1.34-.72.2-3.78-6.91-10.33s-13.3-7.97-16.45-6.15c-1.89,1.09-1.77,6.63,6.1,13.55,7.88,6.92,15.92,3.66,17.26,2.93Z"/>
      </g>
      <g>
        <path d="M454.42,93.87c-10.57,1.47-18.74,11.2-21.31,14.61.98-3.52,2.07-7.89,3.81-11.82,3.75-8.46,9.97-14.57,9.21-16.27s-5.51-5.24-9.28-5.58c-3.3-.3-11.28,15.16-10.81,24.24.2,3.87.28,7.28.54,9.97-20.88-1.32-31.98,11.36-33.6,29.35-1.76,19.56,8.56,38.95,39.71,43.21,6.48.88,21.04-9.84,21.04-9.84,0,0,32.13,12.24,39.75-35.15,5.2-32.34-26.2-44.5-39.06-42.72Z"/>
        <path d="M420.25,99.9c1.35-.73.2-3.79-6.94-10.37s-13.35-8-16.51-6.18c-1.9,1.09-1.78,6.65,6.12,13.6,7.91,6.95,15.98,3.67,17.33,2.94Z"/>
      </g>
      <g>
        <path d="M455.87,94.47c-10.61,1.47-18.8,11.24-21.39,14.66.98-3.53,2.08-7.92,3.82-11.86,3.76-8.49,10.01-14.62,9.24-16.33s-5.53-5.25-9.32-5.6c-3.31-.3-11.32,15.21-10.85,24.32.2,3.89.28,7.31.55,10-20.95-1.33-32.09,11.4-33.72,29.46-1.77,19.63,8.59,39.09,39.86,43.36,6.5.89,21.11-9.87,21.11-9.87,0,0,32.25,12.29,39.89-35.28,5.21-32.46-26.3-44.66-39.19-42.87Z"/>
        <path d="M421.58,100.52c1.35-.73.2-3.81-6.96-10.41s-13.4-8.03-16.57-6.2c-1.9,1.1-1.79,6.68,6.15,13.65,7.93,6.97,16.04,3.68,17.39,2.96Z"/>
      </g>
      <g>
        <path d="M457.32,95.06c-10.64,1.48-18.87,11.28-21.46,14.72.99-3.54,2.09-7.95,3.84-11.9,3.78-8.52,10.04-14.67,9.27-16.39s-5.55-5.27-9.35-5.62c-3.32-.3-11.36,15.26-10.89,24.41.2,3.9.28,7.33.55,10.04-21.03-1.33-32.2,11.44-33.84,29.56-1.78,19.7,8.62,39.23,40,43.51,6.52.89,21.19-9.91,21.19-9.91,0,0,32.36,12.33,40.03-35.4,5.23-32.57-26.39-44.82-39.33-43.02Z"/>
        <path d="M422.91,101.13c1.36-.73.2-3.82-6.99-10.44s-13.45-8.06-16.63-6.22c-1.91,1.1-1.79,6.7,6.17,13.7,7.96,7,16.1,3.7,17.45,2.97Z"/>
      </g>
      <g>
        <path d="M458.77,95.66c-10.68,1.48-18.94,11.32-21.54,14.77.99-3.56,2.09-7.97,3.85-11.94,3.79-8.55,10.08-14.72,9.31-16.44s-5.57-5.29-9.38-5.64c-3.34-.31-11.4,15.32-10.93,24.5.2,3.91.28,7.36.55,10.07-21.1-1.34-32.32,11.48-33.96,29.67-1.78,19.77,8.65,39.37,40.14,43.67,6.55.89,21.26-9.94,21.26-9.94,0,0,32.48,12.38,40.17-35.53,5.25-32.69-26.49-44.98-39.47-43.18Z"/>
        <path d="M424.24,101.75c1.36-.73.21-3.83-7.01-10.48-7.22-6.65-13.49-8.09-16.69-6.24-1.92,1.1-1.8,6.72,6.19,13.75,7.99,7.02,16.15,3.71,17.51,2.98Z"/>
      </g>
      <g>
        <path d="M460.23,96.25c-10.72,1.49-19,11.36-21.61,14.82.99-3.57,2.1-8,3.87-11.98,3.8-8.58,10.12-14.78,9.34-16.5s-5.59-5.31-9.42-5.66c-3.35-.31-11.44,15.37-10.97,24.58.2,3.93.28,7.39.55,10.11-21.18-1.34-32.43,11.52-34.08,29.77-1.79,19.84,8.68,39.51,40.28,43.82,6.57.9,21.34-9.98,21.34-9.98,0,0,32.59,12.42,40.31-35.65,5.27-32.81-26.58-45.14-39.61-43.33Z"/>
        <path d="M425.57,102.37c1.36-.74.21-3.85-7.04-10.52-7.24-6.67-13.54-8.11-16.75-6.27-1.92,1.11-1.81,6.75,6.21,13.8,8.02,7.05,16.21,3.72,17.57,2.99Z"/>
      </g>
      <g>
        <path d="M461.68,96.85c-10.76,1.49-19.07,11.4-21.69,14.87,1-3.58,2.11-8.03,3.88-12.03,3.82-8.61,10.15-14.83,9.37-16.56s-5.61-5.33-9.45-5.68c-3.36-.31-11.48,15.43-11.01,24.67.2,3.94.29,7.41.55,10.14-21.25-1.35-32.55,11.56-34.2,29.88-1.79,19.91,8.71,39.65,40.42,43.98,6.59.9,21.41-10.01,21.41-10.01,0,0,32.71,12.46,40.46-35.78,5.29-32.92-26.67-45.3-39.75-43.48Z"/>
        <path d="M426.9,102.98c1.37-.74.21-3.86-7.06-10.55-7.27-6.69-13.59-8.14-16.81-6.29-1.93,1.11-1.81,6.77,6.23,13.84,8.05,7.07,16.27,3.74,17.64,3Z"/>
      </g>
    </g>
    <g>
      <path class="cls-2" d="M447.25,91.49c-10.42,1.45-18.47,11.04-21,14.4.96-3.47,2.04-7.78,3.76-11.65,3.7-8.34,9.83-14.36,9.07-16.04s-5.43-5.16-9.15-5.5c-3.25-.3-11.12,14.94-10.66,23.89.2,3.82.28,7.18.54,9.82-20.58-1.3-31.52,11.2-33.12,28.93-1.74,19.28,8.44,38.39,39.15,42.59,6.38.87,20.74-9.7,20.74-9.7,0,0,31.67,12.07,39.18-34.65,5.12-31.88-25.83-43.87-38.5-42.11Z"/>
      <path class="cls-2" d="M413.57,97.43c1.33-.71.2-3.74-6.84-10.22-7.04-6.48-13.16-7.88-16.28-6.09-1.87,1.08-1.75,6.56,6.04,13.41,7.79,6.85,15.75,3.62,17.08,2.9Z"/>
    </g>
  </g>
</svg>