<?xml version="1.0" encoding="UTF-8"?>
<svg id="Capa_1" xmlns="http://www.w3.org/2000/svg" viewBox="0 0 350 350">
  <defs>
    <style>
      .cls-1 {
        fill: #eb3883;
      }
    </style>
  </defs>
  <g>
    <g>
      <path d="M190.7,100.12c-20.83,2.89-36.93,22.07-42,28.8,1.93-6.94,4.08-15.55,7.51-23.29,7.39-16.67,19.66-28.71,18.15-32.07-1.51-3.35-10.85-10.32-18.3-11-6.51-.6-22.24,29.87-21.31,47.77.39,7.63.55,14.35,1.07,19.64-41.15-2.61-63.02,22.39-66.22,57.85-3.47,38.55,16.87,76.77,78.28,85.16,12.77,1.74,41.46-19.39,41.46-19.39,0,0,63.33,24.13,78.34-69.28,10.24-63.75-51.65-87.71-76.98-84.2Z"/>
      <path d="M123.36,112c2.65-1.43.4-7.48-13.67-20.44-14.07-12.96-26.31-15.77-32.55-12.17-3.74,2.15-3.51,13.11,12.07,26.81,15.58,13.69,31.5,7.23,34.15,5.8Z"/>
    </g>
    <g>
      <path d="M193.6,101.31c-20.91,2.9-37.06,22.15-42.15,28.9,1.94-6.96,4.1-15.61,7.54-23.37,7.42-16.73,19.73-28.82,18.21-32.18-1.52-3.37-10.89-10.36-18.36-11.04-6.53-.6-22.32,29.98-21.39,47.94.39,7.66.55,14.41,1.07,19.71-41.3-2.62-63.25,22.47-66.46,58.06-3.49,38.69,16.94,77.05,78.56,85.47,12.81,1.75,41.61-19.46,41.61-19.46,0,0,63.56,24.22,78.62-69.53,10.28-63.98-51.84-88.03-77.26-84.5Z"/>
      <path d="M126.02,113.23c2.66-1.43.4-7.5-13.72-20.51-14.12-13.01-26.41-15.82-32.67-12.22-3.75,2.16-3.52,13.16,12.11,26.9,15.64,13.74,31.61,7.26,34.27,5.82Z"/>
    </g>
    <g>
      <path d="M196.51,102.5c-20.98,2.91-37.2,22.23-42.3,29.01,1.94-6.99,4.11-15.66,7.57-23.46,7.44-16.79,19.8-28.92,18.28-32.3-1.52-3.38-10.93-10.39-18.43-11.08-6.55-.6-22.4,30.09-21.47,48.11.39,7.69.56,14.46,1.08,19.78-41.45-2.63-63.48,22.55-66.7,58.27-3.5,38.83,17,77.33,78.84,85.77,12.86,1.76,41.76-19.53,41.76-19.53,0,0,63.79,24.31,78.91-69.78,10.31-64.21-52.02-88.35-77.53-84.81Z"/>
      <path d="M128.68,114.47c2.67-1.44.4-7.53-13.77-20.59-14.18-13.06-26.5-15.88-32.78-12.26-3.76,2.17-3.53,13.21,12.16,27,15.69,13.79,31.73,7.29,34.4,5.85Z"/>
    </g>
    <g>
      <path d="M199.41,103.69c-21.06,2.92-37.33,22.31-42.46,29.11,1.95-7.01,4.13-15.72,7.59-23.54,7.47-16.85,19.87-29.02,18.34-32.41-1.53-3.39-10.97-10.43-18.5-11.12-6.58-.6-22.48,30.2-21.55,48.29.4,7.72.56,14.51,1.08,19.86-41.6-2.63-63.71,22.64-66.94,58.48-3.51,38.97,17.06,77.6,79.13,86.08,12.9,1.76,41.91-19.6,41.91-19.6,0,0,64.02,24.4,79.19-70.03,10.35-64.44-52.21-88.66-77.81-85.11Z"/>
      <path d="M131.33,115.7c2.68-1.44.4-7.56-13.82-20.66-14.23-13.1-26.6-15.94-32.9-12.31-3.78,2.18-3.55,13.25,12.2,27.1,15.75,13.84,31.84,7.31,34.52,5.87Z"/>
    </g>
    <g>
      <path d="M202.31,104.88c-21.13,2.93-37.46,22.39-42.61,29.22,1.96-7.04,4.14-15.77,7.62-23.63,7.5-16.91,19.94-29.13,18.41-32.53-1.53-3.4-11.01-10.47-18.56-11.16-6.6-.6-22.56,30.31-21.62,48.46.4,7.74.56,14.56,1.09,19.93-41.75-2.64-63.94,22.72-67.18,58.69-3.52,39.11,17.12,77.88,79.41,86.39,12.95,1.77,42.06-19.67,42.06-19.67,0,0,64.25,24.48,79.47-70.29,10.39-64.67-52.4-88.98-78.09-85.42Z"/>
      <path d="M133.99,116.93c2.69-1.45.41-7.58-13.87-20.73-14.28-13.15-26.69-15.99-33.02-12.35-3.79,2.18-3.56,13.3,12.25,27.2,15.81,13.89,31.96,7.34,34.64,5.89Z"/>
    </g>
    <g>
      <path d="M205.22,106.07c-21.21,2.94-37.6,22.47-42.76,29.32,1.96-7.06,4.16-15.83,7.65-23.71,7.52-16.97,20.01-29.23,18.47-32.65-1.54-3.41-11.05-10.51-18.63-11.2-6.62-.61-22.64,30.41-21.7,48.63.4,7.77.56,14.61,1.09,20-41.9-2.65-64.16,22.8-67.42,58.9-3.54,39.25,17.18,78.16,79.7,86.7,13,1.78,42.21-19.74,42.21-19.74,0,0,64.48,24.57,79.76-70.54,10.43-64.9-52.59-89.3-78.37-85.72Z"/>
      <path d="M136.65,118.17c2.7-1.46.41-7.61-13.92-20.81-14.33-13.2-26.79-16.05-33.14-12.39-3.8,2.19-3.57,13.35,12.29,27.29,15.86,13.94,32.07,7.36,34.77,5.91Z"/>
    </g>
    <g>
      <path d="M208.12,107.26c-21.28,2.95-37.73,22.55-42.91,29.42,1.97-7.09,4.17-15.89,7.68-23.79,7.55-17.03,20.08-29.34,18.54-32.76-1.54-3.43-11.09-10.54-18.7-11.24-6.65-.61-22.72,30.52-21.78,48.81.4,7.8.56,14.67,1.09,20.07-42.05-2.66-64.39,22.88-67.66,59.11-3.55,39.39,17.24,78.44,79.98,87.01,13.04,1.78,42.36-19.81,42.36-19.81,0,0,64.71,24.66,80.04-70.79,10.46-65.13-52.77-89.62-78.65-86.03Z"/>
      <path d="M139.31,119.4c2.71-1.46.41-7.64-13.97-20.88-14.38-13.24-26.89-16.11-33.26-12.44-3.82,2.2-3.59,13.4,12.33,27.39,15.92,13.99,32.18,7.39,34.89,5.93Z"/>
    </g>
    <g>
      <path d="M211.03,108.45c-21.36,2.96-37.87,22.63-43.07,29.53,1.98-7.11,4.19-15.94,7.7-23.88,7.58-17.09,20.15-29.44,18.61-32.88-1.55-3.44-11.13-10.58-18.76-11.28-6.67-.61-22.8,30.63-21.86,48.98.4,7.83.57,14.72,1.1,20.14-42.2-2.67-64.62,22.96-67.9,59.32-3.56,39.53,17.3,78.72,80.26,87.32,13.09,1.79,42.52-19.88,42.52-19.88,0,0,64.94,24.75,80.33-71.04,10.5-65.37-52.96-89.94-78.93-86.33Z"/>
      <path d="M141.97,120.64c2.72-1.47.41-7.67-14.02-20.96-14.43-13.29-26.98-16.17-33.37-12.48-3.83,2.21-3.6,13.44,12.38,27.49,15.98,14.04,32.3,7.42,35.02,5.95Z"/>
    </g>
    <g>
      <path d="M213.93,109.64c-21.43,2.97-38,22.71-43.22,29.63,1.98-7.14,4.2-16,7.73-23.96,7.6-17.15,20.23-29.54,18.67-33-1.55-3.45-11.17-10.62-18.83-11.32-6.69-.61-22.88,30.74-21.93,49.15.4,7.85.57,14.77,1.1,20.21-42.35-2.68-64.85,23.04-68.14,59.53-3.57,39.67,17.36,79,80.55,87.63,13.14,1.79,42.67-19.95,42.67-19.95,0,0,65.17,24.83,80.61-71.29,10.54-65.6-53.15-90.26-79.21-86.64Z"/>
      <path d="M144.63,121.87c2.73-1.47.41-7.69-14.07-21.03-14.48-13.34-27.08-16.22-33.49-12.53-3.85,2.22-3.61,13.49,12.42,27.59,16.03,14.09,32.41,7.44,35.14,5.97Z"/>
    </g>
    <g>
      <path d="M216.83,110.83c-21.51,2.98-38.13,22.79-43.37,29.74,1.99-7.16,4.22-16.06,7.76-24.05,7.63-17.22,20.3-29.65,18.74-33.11s-11.21-10.66-18.89-11.36c-6.72-.62-22.96,30.85-22.01,49.33.4,7.88.57,14.82,1.11,20.28-42.5-2.69-65.08,23.12-68.38,59.74-3.59,39.81,17.43,79.27,80.83,87.94,13.18,1.8,42.82-20.02,42.82-20.02,0,0,65.4,24.92,80.89-71.54,10.57-65.83-53.33-90.57-79.49-86.94Z"/>
      <path d="M147.29,123.1c2.74-1.48.41-7.72-14.12-21.1-14.53-13.38-27.17-16.28-33.61-12.57-3.86,2.22-3.62,13.54,12.47,27.68,16.09,14.14,32.53,7.47,35.26,5.99Z"/>
    </g>
  </g>
  <g>
    <path class="cls-1" d="M187.98,100.12c-20.83,2.89-36.93,22.07-42,28.8,1.93-6.94,4.08-15.55,7.51-23.29,7.39-16.67,19.66-28.71,18.15-32.07-1.51-3.35-10.85-10.32-18.3-11-6.51-.6-22.24,29.87-21.31,47.77.39,7.63.55,14.35,1.07,19.64-41.15-2.61-63.02,22.39-66.22,57.85-3.47,38.55,16.87,76.77,78.28,85.16,12.77,1.74,41.46-19.39,41.46-19.39,0,0,63.33,24.13,78.34-69.28,10.24-63.75-51.65-87.71-76.98-84.2Z"/>
    <path class="cls-1" d="M120.64,112c2.65-1.43.4-7.48-13.67-20.44-14.07-12.96-26.31-15.77-32.55-12.17-3.74,2.15-3.51,13.11,12.07,26.81,15.58,13.69,31.5,7.23,34.15,5.8Z"/>
  </g>
</svg>